<svg width="306" height="94" viewBox="0 0 306 94" fill="none" xmlns="http://www.w3.org/2000/svg" title="Bristle-logo">
<g clip-path="url(#clip0_1_2)">
<g clip-path="url(#clip1_1_2)">
<mask id="mask0_1_2" style="mask-type:luminance" maskUnits="userSpaceOnUse" x="248" y="0" width="58" height="94">
<path d="M248 0.520844H305.964V93.5208H248V0.520844Z" fill="white"/>
</mask>
<g mask="url(#mask0_1_2)">
<path d="M248.172 11.4896L283.708 47.0208L248.172 82.5573L259.141 93.5208L305.635 47.0208L259.141 0.520844L248.172 11.4896Z" fill="#F81A1A"/>
</g>
<path d="M31.7109 46.2135C36.5859 44.2239 39.3151 40.2344 39.3151 34.7708C39.3151 26.6458 33.4818 21.9167 23.8828 21.9167H0.174469V74.5H24.3984C35.3307 74.5 41.7526 68.7396 41.7526 59.2135C41.7526 52.4948 38.5026 48.2812 31.7109 46.2135ZM23.0703 27.901C29.0495 27.901 32.2995 30.4844 32.2995 35.7292C32.2995 41.1198 28.8307 44.2239 22.4036 44.2239H7.04426V27.901H23.0703ZM7.04426 68.5156V49.9844H23.8828C30.9713 49.9844 34.737 53.1562 34.737 59.2135C34.737 65.3437 31.0443 68.5156 23.8828 68.5156H7.04426Z" fill="black"/>
<path d="M71.2874 35.3594C65.527 35.3594 61.8343 38.6094 59.5478 43.7031V36.3958H53.1937V74.5H59.9906V53.6719C60.2874 45.9219 65.8968 42.0052 70.9176 42.0052C71.5843 42.0052 72.3239 42.0052 73.3551 42.0781V35.5052C72.6937 35.4323 72.027 35.3594 71.2874 35.3594Z" fill="black"/>
<path d="M87.165 29.2292V21.9167H80.3682V29.2292H87.165ZM87.165 74.5V36.3958H80.3682V74.5H87.165Z" fill="black"/>
<path d="M111.831 75.4583C121.873 75.4583 127.779 70.8802 127.779 63.4219C127.779 57.8854 124.456 54.4114 116.555 52.6406L109.17 51.0156C104.664 50.0573 103.263 48.3594 103.263 45.9219C103.263 42.5208 106.143 40.8958 110.94 40.8958C116.331 40.8958 119.211 43.1146 119.951 47.4687L126.675 47.1771C125.565 39.1979 119.659 35.5052 111.164 35.5052C101.784 35.5052 96.982 39.8646 96.982 46.5104C96.982 51.901 100.159 55.2969 107.545 56.8489L115.227 58.4739C119.211 59.2864 121.279 60.9844 121.279 64.0156C121.279 67.6302 118.326 69.9948 112.123 69.9948C106.289 69.9948 103.112 67.7812 102.451 62.4635L96.0237 62.7604C96.9091 71.25 102.3 75.4583 111.831 75.4583Z" fill="black"/>
<path d="M154.513 41.6354V36.3958L145.794 36.6875V24.7239H139.002V36.6146L133.315 36.3958V41.6354L139.002 41.3437V66.0052C139.002 71.9166 141.586 74.5 147.497 74.5H154.435V68.8125H149.487C146.685 68.8125 145.794 67.9271 145.794 65.1198V41.3437L154.513 41.6354Z" fill="black"/>
<path d="M169.427 74.5V21.9167H162.63V74.5H169.427Z" fill="black"/>
<path d="M214.4 54.5625C214.4 42.6719 207.676 35.5052 196.973 35.5052C185.598 35.5052 179.025 43.6302 179.025 55.2969C179.025 67.0416 185.744 75.3854 197.119 75.3854C205.244 75.3854 211.447 71.1041 213.885 63.6458L207.676 62.9062C205.905 67.3385 202.655 69.8489 197.338 69.8489C190.473 69.8489 186.041 65.6354 185.817 57.0729H214.4V54.5625ZM197.046 41.0469C203.249 41.0469 207.161 44.9583 208.046 52.1979H185.895C186.556 44.7396 190.989 41.0469 197.046 41.0469Z" fill="black"/>
<mask id="mask1_1_2" style="mask-type:luminance" maskUnits="userSpaceOnUse" x="226" y="13" width="43" height="68">
<path d="M226.948 13.6927H268.948V80.6927H226.948V13.6927Z" fill="white"/>
</mask>
<g mask="url(#mask1_1_2)">
<path d="M227.099 21.5938L252.828 47.1927L227.099 72.7917L235.042 80.6927L268.708 47.1927L235.042 13.6927L227.099 21.5938Z" fill="#235AD6"/>
</g>
</g>
</g>
<defs>
<clipPath id="clip0_1_2">
<rect width="306" height="94" fill="white"/>
</clipPath>
<clipPath id="clip1_1_2">
<rect width="306" height="94" fill="white"/>
</clipPath>
</defs>
</svg>
